<?xml version="1.0" encoding="utf-8"?>
<!-- Generator: Adobe Illustrator 25.4.1, SVG Export Plug-In . SVG Version: 6.00 Build 0)  -->
<svg version="1.1" id="Layer_1" xmlns="http://www.w3.org/2000/svg" xmlns:xlink="http://www.w3.org/1999/xlink" x="0px" y="0px"
	 viewBox="0 0 1076 133" style="enable-background:new 0 0 1076 133;" xml:space="preserve">
<path d="M153.3,5c-1.9,0.8-3.2,2.2-3.9,4.3c-0.7,2.1-1,5.6-1,10.4v93.6c0,4.8,0.3,8.2,1,10.4c0.7,2.1,2,3.6,4,4.3
	c1.9,0.8,5,1.3,9.2,1.5v3.8c-6.9-0.4-16.8-0.6-29.6-0.6c-13.5,0-23.4,0.2-29.8,0.6v-3.8c4.5-0.3,7.8-0.8,9.9-1.5
	c2.1-0.8,3.5-2.2,4.2-4.3c0.8-2.1,1.1-5.6,1.1-10.4V14.6L72.9,133.5h-3l-51-121.6v90.4c0,7.4,0.4,12.9,1.1,16.3
	c0.8,3.5,2.4,6,4.9,7.5c2.5,1.6,6.6,2.7,12.3,3.3v3.8c-4.9-0.4-11.7-0.6-20.4-0.6c-6.9,0-12.4,0.2-16.4,0.6v-3.8
	c4.2-0.6,7.2-1.7,9.2-3.2c1.9-1.5,3.3-3.9,4-7.2c0.7-3.3,1-8.1,1-14.5V19.7c0-4.8-0.3-8.2-1-10.4c-0.7-2.1-2-3.6-4-4.3
	c-2-0.8-5-1.3-9.2-1.5v-3.8c4,0.4,9.5,0.6,16.4,0.6c11.6,0,21.5-0.2,29.8-0.6l38.1,91.9l34.7-91.4h13.4c12.8,0,22.7-0.2,29.6-0.6
	v3.8C158.3,3.7,155.2,4.2,153.3,5z"/>
<path d="M275.6,22.8c9.6,4.6,17,11.3,22.3,20.2c5.3,8.9,7.9,19.5,7.9,31.8c0,12.1-2.7,22.7-8.1,32c-5.4,9.2-13,16.4-22.7,21.5
	c-9.7,5.1-20.7,7.6-33,7.6c-12.7,0-23.8-2.3-33.4-6.9c-9.6-4.6-17-11.3-22.3-20.2c-5.3-8.9-7.9-19.5-7.9-31.8
	c0-12.1,2.7-22.7,8.1-32c5.4-9.2,13-16.4,22.7-21.5c9.7-5.1,20.7-7.6,33-7.6C254.9,15.9,266.1,18.2,275.6,22.8z M224.2,26.6
	c-5,4.8-8.8,11.6-11.5,20.2c-2.7,8.6-4.1,18.5-4.1,29.5c0,11.2,1.5,21.1,4.5,29.6c3,8.6,7.1,15.1,12.4,19.7c5.2,4.6,11,6.9,17.3,6.9
	c6.5,0,12.3-2.4,17.3-7.3c5-4.8,8.8-11.6,11.5-20.2c2.7-8.6,4.1-18.5,4.1-29.5c0-11.2-1.5-21.1-4.5-29.6c-3-8.6-7.1-15.1-12.4-19.7
	c-5.2-4.6-11-6.9-17.3-6.9C234.9,19.3,229.1,21.7,224.2,26.6z"/>
<path d="M434,18.5v3.8c-3.3,1.3-6.3,3.7-9.1,7.3c-2.8,3.6-5.7,8.9-8.7,16l-37,88.2c-1-0.1-2.5-0.2-4.3-0.2s-3.3,0.1-4.3,0.2
	l-46.6-99.3c-3.7-7.8-7.6-11.8-11.9-12.1v-3.8c5.9,0.4,14.2,0.6,24.7,0.6c13.5,0,23.4-0.2,29.8-0.6v3.8c-4.2,0.3-7.2,0.9-9.2,2
	c-2,1.1-3,2.8-3,5.2c0,2.4,0.8,5.3,2.5,8.7l30.4,66.1l19.1-44.4c4-9.7,6-17.4,6-23.2c0-9.2-5.1-14-15.3-14.3v-3.8
	c7.2,0.4,14.9,0.6,23.2,0.6C425.7,19.1,430.3,18.9,434,18.5z"/>
<path d="M500.1,22.3c-4.3,0.3-7.4,0.8-9.2,1.5c-1.9,0.8-3.2,2.2-3.9,4.3c-0.7,2.1-1,5.6-1,10.4v74.8c0,4.8,0.3,8.2,1,10.4
	c0.7,2.1,2,3.6,3.9,4.3s5,1.3,9.2,1.5v3.8c-6.4-0.4-15.7-0.6-27.9-0.6c-13.2,0-23,0.2-29.3,0.6v-3.8c4.3-0.3,7.4-0.8,9.2-1.5
	s3.2-2.2,3.9-4.3c0.7-2.1,1-5.6,1-10.4V38.6c0-4.8-0.3-8.2-1-10.4c-0.7-2.1-2-3.6-4-4.3c-2-0.8-5-1.3-9.2-1.5v-3.8
	c6.2,0.4,15.9,0.6,29.3,0.6c12.2,0,21.5-0.2,27.9-0.6V22.3z"/>
<path d="M616.5,133.3c-8.2-0.4-22-0.6-41.3-0.6c-25.9,0-45.4,0.2-58.5,0.6v-3.8c4.3-0.3,7.4-0.8,9.2-1.5s3.2-2.2,3.9-4.3
	c0.7-2.1,1-5.6,1-10.4V38.6c0-4.8-0.3-8.2-1-10.4c-0.7-2.1-2-3.6-4-4.3c-2-0.8-5-1.3-9.2-1.5v-3.8c13.1,0.4,32.6,0.6,58.5,0.6
	c17.6,0,30.1-0.2,37.6-0.6c-0.9,8.4-1.3,16-1.3,22.7c0,4.9,0.2,8.8,0.6,11.7h-4.3c-1.9-10.8-5.2-18.5-9.8-23.1
	c-4.7-4.6-11.1-6.9-19.3-6.9h-7c-3.3,0-5.7,0.3-7.4,0.8c-1.6,0.6-2.8,1.7-3.5,3.4c-0.7,1.7-1,4.4-1,8v38.5h8.9
	c5.8,0,10.2-2,13.1-6.1c3-4.1,4.9-8.8,5.9-14.3h4.3c-0.4,4.3-0.6,9.2-0.6,14.7v7.5c0,5.7,0.4,13.1,1.1,22.3h-4.3
	c-0.9-5.9-2.9-10.8-5.9-14.6c-3.1-3.8-7.6-5.8-13.7-5.8h-8.9v39.3c0,3.7,0.3,6.3,1,8c0.7,1.7,1.9,2.8,3.5,3.4
	c1.6,0.6,4.1,0.8,7.4,0.8h8.1c8.9,0,16-2.6,21-7.7c5.1-5.2,8.7-13.8,10.7-26h4.3c-0.4,3.5-0.6,8.1-0.6,13.6
	C615.2,115.9,615.6,124.1,616.5,133.3z"/>
<path d="M786.4,74.4c7.7,6.3,11.5,13.7,11.5,22.3c0,11.7-4.6,20.7-13.8,27.1c-9.2,6.4-22,9.5-38.3,9.5c-3.7,0-6.7-0.1-9.2-0.2
	c-8.3-0.3-16.4-0.4-24.4-0.4c-13,0-22.7,0.2-29.1,0.6v-3.8c4.2-0.3,7.2-0.8,9.2-1.5c1.9-0.8,3.3-2.2,4-4.3c0.7-2.1,1-5.6,1-10.4
	V19.7c0-4.8-0.3-8.2-1-10.4c-0.7-2.1-2-3.6-4-4.3c-2-0.8-5-1.3-9.2-1.5v-3.8c6.4,0.4,16,0.6,28.7,0.6l21-0.2
	c2.5-0.1,5.4-0.2,8.7-0.2c15.1,0,26.6,2.7,34.6,8.1c8,5.4,12,12.6,12,21.5c0,7.3-3.2,14.1-9.5,20.4c-6.4,6.3-15.8,10.6-28.2,12.8
	v0.4C766.7,64.4,778.7,68.1,786.4,74.4z M731.6,4.8c-1.6,0.9-2.7,2.5-3.3,4.7c-0.6,2.3-0.9,5.7-0.9,10.2v42.7h8.1
	c8.2,0,13.9-2.8,17.2-8.4c3.3-5.6,4.9-13.1,4.9-22.4c0-9.4-1.5-16.5-4.4-21.1c-3-4.7-7.6-7-14.1-7C735.6,3.4,733.1,3.9,731.6,4.8z
	 M766.6,95.9c0-9.9-2.5-17.5-7.6-22.7c-5-5.2-13-7.7-23.8-7.7h-7.9v47.8c0,4.5,0.3,7.9,0.9,10c0.6,2.1,1.9,3.6,3.7,4.4
	c1.8,0.8,4.6,1.2,8.4,1.2C757.8,129,766.6,118,766.6,95.9z"/>
<path d="M912.5,22.8c9.6,4.6,17,11.3,22.3,20.2c5.3,8.9,7.9,19.5,7.9,31.8c0,12.1-2.7,22.7-8.1,32c-5.4,9.2-13,16.4-22.7,21.5
	c-9.7,5.1-20.7,7.6-33,7.6c-12.7,0-23.8-2.3-33.4-6.9c-9.6-4.6-17-11.3-22.3-20.2s-7.9-19.5-7.9-31.8c0-12.1,2.7-22.7,8.1-32
	c5.4-9.2,13-16.4,22.7-21.5c9.7-5.1,20.7-7.6,33-7.6C891.8,15.9,902.9,18.2,912.5,22.8z M861.1,26.6c-5,4.8-8.8,11.6-11.5,20.2
	c-2.7,8.6-4.1,18.5-4.1,29.5c0,11.2,1.5,21.1,4.5,29.6c3,8.6,7.1,15.1,12.4,19.7c5.2,4.6,11,6.9,17.3,6.9c6.5,0,12.3-2.4,17.3-7.3
	c5-4.8,8.8-11.6,11.5-20.2c2.7-8.6,4.1-18.5,4.1-29.5c0-11.2-1.5-21.1-4.5-29.6c-3-8.6-7.1-15.1-12.4-19.7c-5.2-4.6-11-6.9-17.3-6.9
	C871.8,19.3,866,21.7,861.1,26.6z"/>
<path d="M1066.2,127.1c1.5,1.3,3.4,2,5.7,2.3v4c-12.1-0.5-20.2-0.8-24.4-0.8c-4,0-12.6,0.2-25.9,0.6c-1,0.1-2.4,0.2-4.2,0.2v-4
	c4.2,0,7.2-0.2,9.1-0.7c1.9-0.4,2.8-1.2,2.8-2.4c0-0.9-0.5-2-1.5-3.4l-26.6-37.4l-15.1,18.9c-4.3,5.4-6.4,10-6.4,13.8
	c0,3.4,1.4,6.1,4.2,8c2.8,2,6.7,3.1,11.6,3.3v3.8c-7.2-0.4-16.5-0.6-28.1-0.6c-6.2,0-11.5,0.2-16,0.6v-3.8c3.8-1.5,7.9-4.1,12.5-7.6
	c4.5-3.6,8.3-7.3,11.3-11L998.6,82l-35.9-50.2c-2.6-3.6-4.7-6.1-6-7.4c-1.4-1.3-3.3-1.9-5.7-2.1v-4c12.6,0.5,20.7,0.8,24.4,0.8
	c4.9,0,13.6-0.2,26-0.6c1-0.1,2.3-0.2,4-0.2v4c-4.2,0-7.1,0.3-9,0.8c-1.8,0.5-2.7,1.3-2.7,2.5c0,0.9,0.4,2,1.3,3.2l24.2,33.8
	l11.9-14.7c4.7-5.5,7-10.6,7-15.3c0-3-1-5.4-3.1-7.3c-2.1-1.8-5.1-2.8-9.2-2.9v-3.8c7.2,0.4,15,0.6,23.6,0.6c7.2,0,12.5-0.2,16-0.6
	v3.8c-3.3,1-6.7,2.9-10.4,5.7c-3.7,2.8-7,6-10.2,9.8l-23.2,28.3l38.5,53.8C1062.6,123.4,1064.6,125.8,1066.2,127.1z"/>
</svg>
