<?xml version="1.0" encoding="utf-8"?>
<!-- Generator: Adobe Illustrator 25.4.1, SVG Export Plug-In . SVG Version: 6.00 Build 0)  -->
<svg version="1.1" id="Layer_1" xmlns="http://www.w3.org/2000/svg" xmlns:xlink="http://www.w3.org/1999/xlink" x="0px" y="0px"
	 viewBox="0 0 526.9 545.3" style="enable-background:new 0 0 526.9 545.3;" xml:space="preserve">
<path d="M234.9,0c11.2,1.8,22.5,2.8,33.5,5.4C336.6,21.9,387.7,60.9,418,124.2c36.7,76.6,29.2,150.9-17,221.7
	c-3.5,5.3-7.7,10.2-11.9,15.7c1.3,1.4,2.5,2.8,3.8,4.1c41.2,42.9,82.4,85.7,123.7,128.6c11.1,11.6,13.2,25,5.9,37.3
	c-8.9,14.8-29.3,18.2-42.5,7c-2-1.7-3.9-3.6-5.8-5.5c-41.2-42.8-82.5-85.7-123.7-128.6c-1.2-1.3-2.1-2.9-2.5-3.5
	c-14.1,7.4-26.7,15.2-40.1,20.9c-60.2,25.5-120.6,25.4-179.9-2.4C66.1,390.4,25.5,342,7.8,275.9C-7.8,217.3,0,161.1,31.1,108.8
	C64,53.5,112.5,19,175.2,4.8c10.1-2.3,20.6-3.2,30.9-4.8C215.7,0,225.3,0,234.9,0z M220.4,57.5c-89.6,0.1-162.5,73.1-162.5,162.7
	c0,89.6,72.7,162.3,162.5,162.7c89.4,0.3,163.2-73.5,162.7-162.9C382.8,130.1,309.9,57.4,220.4,57.5z"/>
</svg>
